<svg xmlns="http://www.w3.org/2000/svg" width="26" height="17" viewBox="0 0 26 17">
  <g fill="#000000" fill-rule="evenodd">
    <path d="M24.6243837,7.47492187 C24.3360497,7.71808594 24.2846156,8.16785156 24.5094837,8.47962891 C24.7305037,8.78607422 24.7305037,9.21398437 24.5094837,9.52042969 C22.8898268,11.7654492 20.7942019,13.4524219 18.4349573,14.4723633 C19.6749563,13.0369922 20.4342179,11.1122461 20.4342179,9 C20.4342179,6.89607422 19.6812975,4.97824219 18.4518671,3.54591797 C19.8151127,4.13853516 21.0966274,4.95298828 22.2438935,5.96994141 C22.3862719,6.09609375 22.5282168,6.22693359 22.6660969,6.35888672 C22.9399058,6.62097656 23.3583154,6.5934375 23.6007436,6.29748047 C23.8431719,6.00152344 23.8176987,5.5490625 23.543944,5.28703125 C23.3936526,5.14306641 23.2387001,5.00039062 23.0834767,4.86287109 C20.2532503,2.35417969 16.6752524,0.972597656 13.0088031,0.972597656 C8.07444277,0.972597656 3.50201754,3.38789062 0.463941368,7.59919922 C-0.1310999,8.42402344 -0.1310999,9.57615234 0.463941368,10.4010352 C3.50201754,14.6123437 8.07444277,17.0276367 13.0088031,17.0276367 C17.9430551,17.0276367 22.5155345,14.6123437 25.553719,10.4010352 C26.1487603,9.57603516 26.1487603,8.42396484 25.553719,7.59914062 C25.3287968,7.28736328 24.9128262,7.23193359 24.6243837,7.47492187 Z M1.50817674,9.52042969 C1.28715676,9.21398437 1.28715676,8.78607422 1.50817674,8.47962891 C3.12745426,6.23501953 5.22264557,4.54828125 7.58145658,3.52822266 C6.34275832,4.96289062 5.58338832,6.886875 5.58338832,9 C5.58338832,11.1123633 6.34270412,13.0371094 7.58140238,14.4718359 C5.22264557,13.4517773 3.12740007,11.7650391 1.50817674,9.52042969 L1.50817674,9.52042969 Z M13.0168786,15.5957227 C13.0142229,15.5957227 13.0115672,15.5957813 13.0088573,15.5957813 C13.0061474,15.5957813 13.0035459,15.5957227 13.000836,15.5957227 C9.64017254,15.5910352 6.90766543,12.6342773 6.90766543,9 C6.90766543,5.36572266 9.64011835,2.40896484 13.000836,2.40427734 C13.0034917,2.40427734 13.0061474,2.40421875 13.0088573,2.40421875 C13.0109168,2.40421875 13.0129764,2.40427734 13.0150359,2.40427734 C16.3765123,2.40785156 19.109995,5.36501953 19.109995,9 C19.109995,12.6342773 16.3775421,15.5910352 13.0168786,15.5957227 L13.0168786,15.5957227 Z"/>
    <path d="M13.0000583,5.9625 C11.3324833,5.9625 9.97605833,7.32498047 9.97605833,9 C9.97605833,10.6750195 11.3324833,12.0375 13.0000583,12.0375 C14.6676333,12.0375 16.0240583,10.6750195 16.0240583,9 C16.0240583,7.32498047 14.6676333,5.9625 13.0000583,5.9625 L13.0000583,5.9625 Z M13.0000583,10.6058203 C12.1187583,10.6058203 11.401375,9.88523438 11.401375,9 C11.401375,8.11476563 12.1187583,7.39417969 13.0000583,7.39417969 C13.8813583,7.39417969 14.5987417,8.11476563 14.5987417,9 C14.5987417,9.88523438 13.8813583,10.6058203 13.0000583,10.6058203 L13.0000583,10.6058203 Z"/>
  </g>
</svg>
